<?xml version="1.0" encoding="UTF-8"?><svg xmlns="http://www.w3.org/2000/svg" xmlns:xlink="http://www.w3.org/1999/xlink" viewBox="0 0 898.94 621.6"><defs><style>.e{stroke-width:.82px;}.e,.f,.g,.h,.i{opacity:.5;}.e,.f,.j,.k,.l,.m,.n,.o,.p,.q,.r,.s,.t,.u{fill:none;}.e,.f,.j,.k,.l,.m,.n,.o,.p,.v,.r,.s,.t,.u{stroke-miterlimit:10;}.e,.f,.m,.n,.o,.p,.r{stroke:#e5575e;}.w{opacity:.7;}.j,.l,.v,.t,.u{stroke:#fff;}.x{opacity:.9;}.k{stroke:#ededed;}.y{opacity:.6;}.a`{fill:#e5575e;}.aa{isolation:isolate;}.ab{opacity:.02;}.ac,.m{opacity:.2;}.ad{opacity:.05;}.l,.o{stroke-width:2.19px;}.l,.o,.r,.u{stroke-linecap:round;}.ae{opacity:.8;}.af{opacity:.4;}.ag{opacity:.3;}.ah{clip-path:url(#c);}.ai,.h,.v{fill:#e4e4e4;}.h,.i{mix-blend-mode:overlay;}.n{opacity:.35;}.aj{clip-path:url(#d);}.ak{opacity:.1;}.al{fill:#252525;}.v,.t{stroke-width:1.56px;}.r,.u{stroke-width:3px;}.s{stroke:#e4e4e4;}</style><clipPath id="c"><rect class="q" x="45.34" y="51.39" width="750" height="500"/></clipPath><clipPath id="d"><circle class="q" cx="286.39" cy="445.87" r="44.68" transform="translate(-223.5 590.18) rotate(-73.09)"/></clipPath></defs><g class="aa"><g id="a"><rect class="al" x="45.34" y="51.39" width="750" height="500"/></g><g id="b"><g class="ah"><circle class="h" cx="186.75" cy="399.87" r="106.67" transform="translate(-228.05 249.17) rotate(-45)"/><circle class="h" cx="654.45" cy="211.94" r="107.28"/><g><polygon class="a`" points="482.96 110.65 477.11 110.65 480.04 106.13 482.96 101.62 485.89 106.13 488.82 110.65 482.96 110.65"/><polygon class="a`" points="482.96 161.02 477.11 161.02 480.04 156.51 482.96 151.99 485.89 156.51 488.82 161.02 482.96 161.02"/><polygon class="ai" points="482.96 183.76 477.11 183.76 480.04 179.24 482.96 174.72 485.89 179.24 488.82 183.76 482.96 183.76"/></g><g><path class="k" d="M77.57,521.64c0-2.05,1.66-3.71,3.71-3.71s3.71,1.66,3.71,3.71-1.66,3.71-3.71,3.71-3.71-1.66-3.71-3.71Z"/><path class="k" d="M77.57,504.73c0-2.05,1.66-3.71,3.71-3.71s3.71,1.66,3.71,3.71-1.66,3.71-3.71,3.71-3.71-1.66-3.71-3.71Z"/><path class="k" d="M77.57,487.82c0-2.05,1.66-3.71,3.71-3.71s3.71,1.66,3.71,3.71-1.66,3.71-3.71,3.71-3.71-1.66-3.71-3.71Z"/><path class="k" d="M77.57,470.9c0-2.05,1.66-3.71,3.71-3.71s3.71,1.66,3.71,3.71-1.66,3.71-3.71,3.71-3.71-1.66-3.71-3.71Z"/><path class="k" d="M77.57,453.99c0-2.05,1.66-3.71,3.71-3.71s3.71,1.66,3.71,3.71-1.66,3.71-3.71,3.71-3.71-1.66-3.71-3.71Z"/><path class="k" d="M77.57,437.08c0-2.05,1.66-3.71,3.71-3.71s3.71,1.66,3.71,3.71-1.66,3.71-3.71,3.71-3.71-1.66-3.71-3.71Z"/><path class="k" d="M77.57,420.17c0-2.05,1.66-3.71,3.71-3.71s3.71,1.66,3.71,3.71-1.66,3.71-3.71,3.71-3.71-1.66-3.71-3.71Z"/></g><g><path class="k" d="M193.28,23.82c0,2.05-1.66,3.71-3.71,3.71s-3.71-1.66-3.71-3.71,1.66-3.71,3.71-3.71,3.71,1.66,3.71,3.71Z"/><path class="k" d="M193.28,40.73c0,2.05-1.66,3.71-3.71,3.71s-3.71-1.66-3.71-3.71,1.66-3.71,3.71-3.71,3.71,1.66,3.71,3.71Z"/><path class="k" d="M193.28,57.64c0,2.05-1.66,3.71-3.71,3.71s-3.71-1.66-3.71-3.71,1.66-3.71,3.71-3.71,3.71,1.66,3.71,3.71Z"/><path class="k" d="M193.28,74.55c0,2.05-1.66,3.71-3.71,3.71s-3.71-1.66-3.71-3.71,1.66-3.71,3.71-3.71,3.71,1.66,3.71,3.71Z"/><path class="k" d="M193.28,91.46c0,2.05-1.66,3.71-3.71,3.71s-3.71-1.66-3.71-3.71,1.66-3.71,3.71-3.71,3.71,1.66,3.71,3.71Z"/><path class="k" d="M193.28,108.38c0,2.05-1.66,3.71-3.71,3.71s-3.71-1.66-3.71-3.71,1.66-3.71,3.71-3.71,3.71,1.66,3.71,3.71Z"/><path class="k" d="M193.28,125.29c0,2.05-1.66,3.71-3.71,3.71s-3.71-1.66-3.71-3.71,1.66-3.71,3.71-3.71,3.71,1.66,3.71,3.71Z"/></g><rect class="q" x="46.31" y="-37.35" width="30.41" height="105.1" transform="translate(76.72 -46.31) rotate(90)"/><path class="p" d="M18.31,275.35c-5.36-30.97,17.56-61.87,46.73-73.58,29.17-11.71,62.46-7.67,92.35,2.07,27.18,8.85,56.4,22.3,82.98,11.78,20.3-8.04,33.2-28.54,39.41-49.47,6.21-20.93,7.09-43.03,11.28-64.46s12.53-43.33,29.74-56.76c21.55-16.82,51.41-16.53,78.73-15.48"/><path class="p" d="M429,621.48c-11.69-46.02,26.16-80.97,63.41-100.01,40.74-20.82,86.69-23.05,131.53-20.72,39.51,2.06,86.34,14.51,108.31-28.91,9.35-18.47,11.79-39.58,22.98-57.25,14-22.11,39.72-34.74,65.61-38.57s52.25,.05,78.02,4.65"/><g><rect class="a`" x="78.72" y="97.33" width="15.02" height="15.02"/><rect class="ai" x="93.74" y="112.34" width="15.02" height="15.02"/></g><path class="k" d="M496.98,322.62c4.72-3.63,7.16-.45,11.88-4.08,4.72-3.62,2.29-6.8,7.01-10.42,4.72-3.62,7.16-.45,11.88-4.08,4.72-3.62,2.29-6.8,7.01-10.42,4.72-3.62,7.16-.45,11.88-4.07,4.72-3.62,2.29-6.8,7.01-10.42,4.72-3.63,7.16-.45,11.88-4.08,4.72-3.62,2.29-6.8,7.01-10.42,4.73-3.63,7.16-.45,11.89-4.08,4.73-3.63,2.29-6.8,7.02-10.43"/><path class="k" d="M120.15,462.29c4.75-3.59,7.16-.4,11.91-3.99,4.75-3.59,2.33-6.78,7.08-10.37,4.75-3.59,7.16-.4,11.91-3.99,4.75-3.59,2.33-6.78,7.08-10.37s7.16-.4,11.91-3.99c4.75-3.59,2.33-6.78,7.08-10.37,4.75-3.59,7.16-.4,11.91-4,4.75-3.59,2.33-6.78,7.08-10.37,4.75-3.59,7.16-.4,11.92-4,4.75-3.59,2.34-6.78,7.09-10.38"/><g><rect class="p" x="573.71" y="112.17" width="43.87" height="43.87"/><rect class="p" x="557.54" y="128.34" width="43.87" height="43.87"/><line class="p" x1="557.54" y1="128.34" x2="573.71" y2="112.17"/><line class="p" x1="617.59" y1="112.17" x2="601.42" y2="128.34"/><line class="p" x1="601.9" y1="172.21" x2="617.59" y2="156.04"/><line class="p" x1="557.79" y1="172.21" x2="573.47" y2="156.04"/></g><path class="a`" d="M759.22,525.35c0,1.02-.83,1.85-1.85,1.85s-1.85-.83-1.85-1.85,.83-1.85,1.85-1.85,1.85,.83,1.85,1.85Z"/><path class="a`" d="M148.65,82.45c0,1.02-.83,1.85-1.85,1.85s-1.85-.83-1.85-1.85,.83-1.85,1.85-1.85,1.85,.83,1.85,1.85Z"/><path class="ai" d="M675.79,474.1c0-1.27,1.03-2.3,2.3-2.3s2.3,1.03,2.3,2.3-1.03,2.3-2.3,2.3-2.3-1.03-2.3-2.3Z"/><circle class="ai" cx="103.35" cy="223.19" r="2.3"/><path class="a`" d="M70.65,364.08c0-1.27,1.03-2.3,2.3-2.3s2.3,1.03,2.3,2.3-1.03,2.3-2.3,2.3-2.3-1.03-2.3-2.3Z"/><g><path class="ai" d="M172,305.81c-.97-.26-1.56-1.22-1.31-2.15,.2-.94,1.07-1.59,2.07-1.43,.97,.16,1.68,1.14,1.47,2.18-.26,1.03-1.26,1.65-2.23,1.4Z"/><path class="ai" d="M168.01,315.99c-.85-.48-1.22-1.57-.8-2.44,.42-.87,1.5-1.24,2.41-.84,.92,.4,1.29,1.5,.83,2.45-.46,.96-1.54,1.33-2.44,.83Z"/><path class="ai" d="M161.55,324.82c-.72-.69-.79-1.83-.14-2.54,.67-.69,1.74-.84,2.54-.22,.78,.61,.94,1.82,.2,2.59-.71,.78-1.88,.86-2.6,.17Z"/><path class="ai" d="M153.12,331.8c-.27-.42-.34-.91-.24-1.35,.1-.44,.36-.83,.74-1.13,.77-.58,1.89-.4,2.5,.39,.61,.79,.42,1.95-.43,2.58-.41,.33-.93,.41-1.41,.31-.47-.1-.89-.37-1.16-.79Z"/><g class="ac"><path class="a`" d="M143.24,336.48c-.3-.95,.18-1.99,1.09-2.32,.9-.33,1.95,.15,2.35,1.07,.39,.92-.09,1.96-1.09,2.32-1,.36-2.05-.11-2.35-1.07Z"/></g><g class="ag"><path class="a`" d="M132.49,338.49c-.06-1,.68-1.84,1.64-1.9,.95-.15,1.84,.54,1.99,1.52,.15,.99-.57,1.92-1.62,2.08-1.06,.08-1.96-.7-2.01-1.7Z"/></g><g class="af"><path class="a`" d="M121.57,337.83c.19-.98,1.12-1.66,2.07-1.51,.95,.15,1.64,1.07,1.55,2.07-.1,.99-1.02,1.67-2.07,1.51-1.05-.16-1.74-1.09-1.55-2.07Z"/></g><g class="g"><path class="a`" d="M111.17,334.44c.43-.9,1.48-1.29,2.35-.88,.9,.33,1.36,1.36,1.02,2.3-.34,.94-1.42,1.41-2.42,1.04-.96-.44-1.38-1.56-.95-2.45Z"/></g><g class="y"><path class="a`" d="M101.91,328.6c.63-.75,1.79-.92,2.55-.34,.77,.57,.93,1.71,.37,2.54-.56,.82-1.71,.98-2.56,.35-.85-.64-1.02-1.77-.36-2.54Z"/></g><g class="w"><path class="a`" d="M94.45,320.6c.81-.58,1.94-.43,2.51,.34,.55,.79,.52,1.86-.25,2.53-.74,.65-1.98,.59-2.59-.28-.64-.85-.49-2.01,.32-2.59Z"/></g><g class="ae"><path class="a`" d="M89.17,311.03c.95-.37,1.9,.1,2.36,.95,.42,.86,.03,1.93-.86,2.38-.89,.45-1.99,.04-2.45-.91-.49-.94,.04-2.07,.95-2.42Z"/></g><g class="x"><path class="a`" d="M86.46,300.43c.99-.12,1.92,.56,2.06,1.51,.14,.95-.53,1.89-1.48,2.1-1,.22-1.93-.45-2.09-1.5-.16-1.05,.52-1.99,1.51-2.11Z"/></g><path class="a`" d="M86.46,289.49c1.01,.13,1.62,1,1.61,1.97-.05,.96-.9,1.71-1.9,1.68-1-.03-1.77-.92-1.71-1.98,.02-1.06,1.03-1.8,2-1.67Z"/><g class="ab"><path class="a`" d="M89.17,278.89c.93,.38,1.41,1.41,1.08,2.31-.34,.9-1.37,1.41-2.3,1.13-.98-.29-1.49-1.33-1.12-2.32,.36-1,1.41-1.5,2.34-1.12Z"/></g><g class="ad"><path class="a`" d="M94.45,269.32c.81,.6,.96,1.68,.43,2.48-.5,.82-1.6,1.07-2.46,.56-.86-.51-1.11-1.66-.56-2.57,.58-.88,1.78-1.06,2.58-.48Z"/></g><g class="ak"><path class="a`" d="M101.91,261.32c.63,.77,.57,1.93-.14,2.57-.71,.65-1.86,.59-2.56-.11-.7-.71-.64-1.86,.14-2.57,.78-.71,1.93-.66,2.56,.11Z"/></g><g class="ac"><path class="a`" d="M111.17,255.49c.42,.91,.06,1.98-.81,2.4-.44,.19-.92,.24-1.35,.13-.43-.12-.83-.4-1.08-.84-.25-.43-.3-.93-.17-1.39,.13-.47,.44-.89,.92-1.1,.95-.46,2.07-.1,2.49,.81Z"/></g><g class="ag"><path class="a`" d="M121.57,252.09c.09,.49-.02,.97-.28,1.33-.25,.38-.63,.7-1.1,.82-.93,.24-1.91-.35-2.18-1.31s.33-1.95,1.36-2.22c.51-.13,1.01-.06,1.41,.19,.4,.27,.69,.68,.78,1.17Z"/></g><g class="af"><path class="a`" d="M132.49,251.43c-.07,1-.9,1.77-1.86,1.72-.96-.09-1.76-.8-1.79-1.81-.03-.99,.81-1.9,1.86-1.81,1.06,.05,1.86,.9,1.79,1.9Z"/></g><g class="g"><path class="a`" d="M143.24,253.44c-.15,.47-.48,.84-.88,1.04-.41,.23-.89,.32-1.36,.2-.93-.24-1.51-1.22-1.29-2.2,.22-.97,1.23-1.55,2.26-1.29,.51,.13,.91,.45,1.15,.84,.22,.43,.28,.93,.12,1.41Z"/></g><g class="y"><path class="a`" d="M153.12,258.12c-.54,.84-1.65,1.12-2.47,.62-.42-.25-.68-.67-.81-1.1-.13-.43-.11-.92,.12-1.36,.23-.44,.63-.75,1.09-.89,.46-.13,.96-.05,1.41,.22,.91,.55,1.2,1.68,.66,2.52Z"/></g><g class="w"><path class="a`" d="M161.55,265.1c-.75,.69-1.82,.62-2.53-.03-.71-.65-.75-1.78-.09-2.52,.66-.75,1.84-.78,2.62-.06,.78,.72,.71,1.95,0,2.62Z"/></g><g class="ae"><path class="a`" d="M168.01,273.93c-.88,.48-2,.2-2.5-.62-.5-.82-.23-1.94,.6-2.5,.83-.56,1.95-.28,2.5,.62,.55,.91,.28,2.03-.6,2.5Z"/></g><g class="x"><path class="a`" d="M172,284.11c-.97,.24-1.95-.32-2.19-1.25-.26-.92,.18-1.91,1.14-2.25,.93-.33,2.03,.19,2.33,1.21,.27,1.03-.31,2.05-1.28,2.29Z"/></g><path class="a`" d="M173.41,294.96c-1,0-1.85-.79-1.9-1.75-.05-.96,.72-1.81,1.72-1.9,1-.09,1.85,.69,1.9,1.75,.05,1.06-.72,1.91-1.72,1.9Z"/></g><g class="aj"><g><line class="v" x1="309.16" y1="376.49" x2="171.52" y2="486.44"/><line class="v" x1="321.41" y1="381.26" x2="183.77" y2="491.2"/><line class="v" x1="333.65" y1="386.02" x2="196.02" y2="495.96"/><line class="v" x1="345.9" y1="390.78" x2="208.26" y2="500.73"/><line class="v" x1="358.15" y1="395.55" x2="220.51" y2="505.49"/><line class="v" x1="370.4" y1="400.31" x2="232.76" y2="510.25"/><line class="v" x1="382.65" y1="405.08" x2="245.01" y2="515.02"/><line class="v" x1="394.9" y1="409.84" x2="257.26" y2="519.78"/></g></g><g><path class="a`" d="M692.8,422.57c.82,0,1.48,.66,1.48,1.48s-.66,1.48-1.48,1.48-1.48-.66-1.48-1.48,.66-1.48,1.48-1.48Z"/><path class="a`" d="M692.8,407.65c.82,0,1.48,.66,1.48,1.48s-.66,1.48-1.48,1.48-1.48-.66-1.48-1.48,.66-1.48,1.48-1.48Z"/><circle class="ai" cx="692.8" cy="394.21" r="1.48"/><circle class="ai" cx="692.8" cy="379.29" r="1.48"/><circle class="ai" cx="692.8" cy="364.37" r="1.48"/><circle class="ai" cx="692.8" cy="349.46" r="1.48"/><circle class="ai" cx="692.8" cy="334.54" r="1.48"/><circle class="ai" cx="692.8" cy="319.62" r="1.48"/><path class="a`" d="M704.1,422.57c.82,0,1.48,.66,1.48,1.48s-.66,1.48-1.48,1.48-1.48-.66-1.48-1.48,.66-1.48,1.48-1.48Z"/><path class="a`" d="M704.1,407.65c.82,0,1.48,.66,1.48,1.48s-.66,1.48-1.48,1.48-1.48-.66-1.48-1.48,.66-1.48,1.48-1.48Z"/><circle class="ai" cx="704.1" cy="394.21" r="1.48"/><circle class="ai" cx="704.1" cy="379.29" r="1.48"/><circle class="ai" cx="704.1" cy="364.37" r="1.48"/><circle class="ai" cx="704.1" cy="349.46" r="1.48"/><circle class="ai" cx="704.1" cy="334.54" r="1.48"/><circle class="ai" cx="704.1" cy="319.62" r="1.48"/><path class="a`" d="M715.4,422.57c.82,0,1.48,.66,1.48,1.48s-.66,1.48-1.48,1.48-1.48-.66-1.48-1.48,.66-1.48,1.48-1.48Z"/><path class="a`" d="M715.4,407.65c.82,0,1.48,.66,1.48,1.48s-.66,1.48-1.48,1.48-1.48-.66-1.48-1.48,.66-1.48,1.48-1.48Z"/><path class="ai" d="M715.4,392.73c.82,0,1.48,.66,1.48,1.48s-.66,1.48-1.48,1.48-1.48-.66-1.48-1.48,.66-1.48,1.48-1.48Z"/><path class="ai" d="M715.4,377.81c.82,0,1.48,.66,1.48,1.48s-.66,1.48-1.48,1.48-1.48-.66-1.48-1.48,.66-1.48,1.48-1.48Z"/><path class="ai" d="M715.4,362.9c.82,0,1.48,.66,1.48,1.48s-.66,1.48-1.48,1.48-1.48-.66-1.48-1.48,.66-1.48,1.48-1.48Z"/><path class="ai" d="M715.4,347.98c.82,0,1.48,.66,1.48,1.48s-.66,1.48-1.48,1.48-1.48-.66-1.48-1.48,.66-1.48,1.48-1.48Z"/><path class="ai" d="M715.4,333.06c.82,0,1.48,.66,1.48,1.48s-.66,1.48-1.48,1.48-1.48-.66-1.48-1.48,.66-1.48,1.48-1.48Z"/><path class="ai" d="M715.4,318.15c.82,0,1.48,.66,1.48,1.48s-.66,1.48-1.48,1.48-1.48-.66-1.48-1.48,.66-1.48,1.48-1.48Z"/><path class="a`" d="M726.69,422.57c.82,0,1.48,.66,1.48,1.48s-.66,1.48-1.48,1.48-1.48-.66-1.48-1.48,.66-1.48,1.48-1.48Z"/><path class="a`" d="M726.69,407.65c.82,0,1.48,.66,1.48,1.48s-.66,1.48-1.48,1.48-1.48-.66-1.48-1.48,.66-1.48,1.48-1.48Z"/><path class="ai" d="M726.69,392.73c.82,0,1.48,.66,1.48,1.48s-.66,1.48-1.48,1.48-1.48-.66-1.48-1.48,.66-1.48,1.48-1.48Z"/><path class="ai" d="M726.69,377.81c.82,0,1.48,.66,1.48,1.48s-.66,1.48-1.48,1.48-1.48-.66-1.48-1.48,.66-1.48,1.48-1.48Z"/><path class="ai" d="M726.69,362.9c.82,0,1.48,.66,1.48,1.48s-.66,1.48-1.48,1.48-1.48-.66-1.48-1.48,.66-1.48,1.48-1.48Z"/><path class="ai" d="M726.69,347.98c.82,0,1.48,.66,1.48,1.48s-.66,1.48-1.48,1.48-1.48-.66-1.48-1.48,.66-1.48,1.48-1.48Z"/><path class="ai" d="M726.69,333.06c.82,0,1.48,.66,1.48,1.48s-.66,1.48-1.48,1.48-1.48-.66-1.48-1.48,.66-1.48,1.48-1.48Z"/><path class="ai" d="M726.69,318.15c.82,0,1.48,.66,1.48,1.48s-.66,1.48-1.48,1.48-1.48-.66-1.48-1.48,.66-1.48,1.48-1.48Z"/></g><g><path class="ai" d="M235.66,301.5c0,.82-.66,1.48-1.48,1.48s-1.48-.66-1.48-1.48,.66-1.48,1.48-1.48,1.48,.66,1.48,1.48Z"/><path class="ai" d="M250.58,301.5c0,.82-.66,1.48-1.48,1.48s-1.48-.66-1.48-1.48,.66-1.48,1.48-1.48,1.48,.66,1.48,1.48Z"/><path class="ai" d="M265.5,301.5c0,.82-.66,1.48-1.48,1.48s-1.48-.66-1.48-1.48,.66-1.48,1.48-1.48,1.48,.66,1.48,1.48Z"/><path class="ai" d="M280.41,301.5c0,.82-.66,1.48-1.48,1.48s-1.48-.66-1.48-1.48,.66-1.48,1.48-1.48,1.48,.66,1.48,1.48Z"/><path class="ai" d="M295.33,301.5c0,.82-.66,1.48-1.48,1.48s-1.48-.66-1.48-1.48,.66-1.48,1.48-1.48,1.48,.66,1.48,1.48Z"/><path class="ai" d="M310.25,301.5c0,.82-.66,1.48-1.48,1.48s-1.48-.66-1.48-1.48,.66-1.48,1.48-1.48,1.48,.66,1.48,1.48Z"/><path class="a`" d="M325.16,301.5c0,.82-.66,1.48-1.48,1.48s-1.48-.66-1.48-1.48,.66-1.48,1.48-1.48,1.48,.66,1.48,1.48Z"/><path class="a`" d="M340.08,301.5c0,.82-.66,1.48-1.48,1.48s-1.48-.66-1.48-1.48,.66-1.48,1.48-1.48,1.48,.66,1.48,1.48Z"/><path class="ai" d="M235.66,312.8c0,.82-.66,1.48-1.48,1.48s-1.48-.66-1.48-1.48,.66-1.48,1.48-1.48,1.48,.66,1.48,1.48Z"/><path class="ai" d="M250.58,312.8c0,.82-.66,1.48-1.48,1.48s-1.48-.66-1.48-1.48,.66-1.48,1.48-1.48,1.48,.66,1.48,1.48Z"/><path class="ai" d="M265.5,312.8c0,.82-.66,1.48-1.48,1.48s-1.48-.66-1.48-1.48,.66-1.48,1.48-1.48,1.48,.66,1.48,1.48Z"/><path class="ai" d="M280.41,312.8c0,.82-.66,1.48-1.48,1.48s-1.48-.66-1.48-1.48,.66-1.48,1.48-1.48,1.48,.66,1.48,1.48Z"/><path class="ai" d="M295.33,312.8c0,.82-.66,1.48-1.48,1.48s-1.48-.66-1.48-1.48,.66-1.48,1.48-1.48,1.48,.66,1.48,1.48Z"/><path class="ai" d="M310.25,312.8c0,.82-.66,1.48-1.48,1.48s-1.48-.66-1.48-1.48,.66-1.48,1.48-1.48,1.48,.66,1.48,1.48Z"/><path class="a`" d="M325.16,312.8c0,.82-.66,1.48-1.48,1.48s-1.48-.66-1.48-1.48,.66-1.48,1.48-1.48,1.48,.66,1.48,1.48Z"/><path class="a`" d="M340.08,312.8c0,.82-.66,1.48-1.48,1.48s-1.48-.66-1.48-1.48,.66-1.48,1.48-1.48,1.48,.66,1.48,1.48Z"/><path class="ai" d="M235.66,324.09c0,.82-.66,1.48-1.48,1.48s-1.48-.66-1.48-1.48,.66-1.48,1.48-1.48,1.48,.66,1.48,1.48Z"/><path class="ai" d="M250.58,324.09c0,.82-.66,1.48-1.48,1.48s-1.48-.66-1.48-1.48,.66-1.48,1.48-1.48,1.48,.66,1.48,1.48Z"/><path class="ai" d="M265.5,324.09c0,.82-.66,1.48-1.48,1.48s-1.48-.66-1.48-1.48,.66-1.48,1.48-1.48,1.48,.66,1.48,1.48Z"/><path class="ai" d="M280.41,324.09c0,.82-.66,1.48-1.48,1.48s-1.48-.66-1.48-1.48,.66-1.48,1.48-1.48,1.48,.66,1.48,1.48Z"/><path class="ai" d="M295.33,324.09c0,.82-.66,1.48-1.48,1.48s-1.48-.66-1.48-1.48,.66-1.48,1.48-1.48,1.48,.66,1.48,1.48Z"/><path class="ai" d="M310.25,324.09c0,.82-.66,1.48-1.48,1.48s-1.48-.66-1.48-1.48,.66-1.48,1.48-1.48,1.48,.66,1.48,1.48Z"/><path class="a`" d="M325.16,324.09c0,.82-.66,1.48-1.48,1.48s-1.48-.66-1.48-1.48,.66-1.48,1.48-1.48,1.48,.66,1.48,1.48Z"/><path class="a`" d="M340.08,324.09c0,.82-.66,1.48-1.48,1.48s-1.48-.66-1.48-1.48,.66-1.48,1.48-1.48,1.48,.66,1.48,1.48Z"/><path class="ai" d="M235.66,335.39c0,.82-.66,1.48-1.48,1.48s-1.48-.66-1.48-1.48,.66-1.48,1.48-1.48,1.48,.66,1.48,1.48Z"/><path class="ai" d="M250.58,335.39c0,.82-.66,1.48-1.48,1.48s-1.48-.66-1.48-1.48,.66-1.48,1.48-1.48,1.48,.66,1.48,1.48Z"/><path class="ai" d="M265.5,335.39c0,.82-.66,1.48-1.48,1.48s-1.48-.66-1.48-1.48,.66-1.48,1.48-1.48,1.48,.66,1.48,1.48Z"/><path class="ai" d="M280.41,335.39c0,.82-.66,1.48-1.48,1.48s-1.48-.66-1.48-1.48,.66-1.48,1.48-1.48,1.48,.66,1.48,1.48Z"/><path class="ai" d="M295.33,335.39c0,.82-.66,1.48-1.48,1.48s-1.48-.66-1.48-1.48,.66-1.48,1.48-1.48,1.48,.66,1.48,1.48Z"/><path class="ai" d="M310.25,335.39c0,.82-.66,1.48-1.48,1.48s-1.48-.66-1.48-1.48,.66-1.48,1.48-1.48,1.48,.66,1.48,1.48Z"/><path class="a`" d="M325.16,335.39c0,.82-.66,1.48-1.48,1.48s-1.48-.66-1.48-1.48,.66-1.48,1.48-1.48,1.48,.66,1.48,1.48Z"/><path class="a`" d="M340.08,335.39c0,.82-.66,1.48-1.48,1.48s-1.48-.66-1.48-1.48,.66-1.48,1.48-1.48,1.48,.66,1.48,1.48Z"/></g><polygon class="h" points="344.34 60.56 316.6 31.14 279.46 66.14 242.33 31.14 214.59 60.56 249.98 93.92 214.59 127.28 242.33 156.71 279.46 121.71 316.6 156.71 344.34 127.28 308.95 93.92 344.34 60.56"/><polygon class="h" points="587.57 492.48 559.83 463.05 522.69 498.05 485.56 463.05 457.82 492.48 493.21 525.84 457.82 559.19 485.56 588.62 522.69 553.62 559.83 588.62 587.57 559.19 552.17 525.84 587.57 492.48"/><rect class="a`" x="505.26" y="35.85" width="124.92" height="24.62"/><rect class="a`" x="451.75" y="35.85" width="42.33" height="24.62"/><rect class="a`" x="786.07" y="332.36" width="42.33" height="12.31"/><rect class="a`" x="786.07" y="309.28" width="42.33" height="12.31"/><rect class="a`" x="12.95" y="302.25" width="42.33" height="12.31"/><rect class="a`" x="438.71" y="278.21" width="6.41" height="11.91"/><rect class="a`" x="155.33" y="540.24" width="72.39" height="24.62"/><rect class="a`" x="114.65" y="540.24" width="29.5" height="24.62"/><g><circle class="m" cx="366.34" cy="206.23" r="46.77" transform="translate(82.89 516.71) rotate(-76.98)"/><circle class="n" cx="366.34" cy="206.23" r="36.01" transform="translate(82.56 516.41) rotate(-76.92)"/><circle class="f" cx="366.34" cy="206.23" r="27.18"/><circle class="p" cx="366.34" cy="206.23" r="17.43" transform="translate(82 515.89) rotate(-76.82)"/></g><g><rect class="a`" x="637.35" y="223.19" width="13.98" height="13.98"/><g><rect class="ai" x="637.35" y="249.49" width="13.98" height="13.98"/><rect class="s" x="637.35" y="312.56" width="13.98" height="13.98"/></g></g><g><g><path class="a`" d="M754.67,131.03c-.99-.26-1.59-1.24-1.34-2.19,.2-.96,1.1-1.62,2.12-1.46,.99,.16,1.72,1.16,1.5,2.22-.27,1.05-1.28,1.69-2.27,1.43Z"/><path class="a`" d="M750.6,141.42c-.87-.49-1.24-1.61-.82-2.49,.42-.88,1.53-1.27,2.46-.86,.93,.41,1.31,1.53,.84,2.5-.47,.98-1.57,1.36-2.49,.85Z"/><path class="a`" d="M744.01,150.43c-.74-.7-.8-1.86-.14-2.59,.69-.7,1.78-.86,2.59-.23,.8,.62,.96,1.86,.21,2.64-.73,.8-1.91,.88-2.65,.17Z"/><path class="a`" d="M735.42,157.55c-.27-.43-.34-.93-.25-1.38,.1-.45,.37-.85,.75-1.16,.78-.59,1.93-.41,2.55,.4,.62,.81,.43,1.99-.44,2.63-.42,.34-.95,.42-1.43,.31-.48-.1-.91-.38-1.18-.81Z"/><path class="a`" d="M725.33,162.32c-.31-.97,.19-2.03,1.11-2.37,.92-.34,1.99,.15,2.4,1.09,.4,.94-.09,2-1.11,2.37-1.02,.37-2.09-.12-2.4-1.09Z"/><path class="a`" d="M714.36,164.37c-.06-1.02,.69-1.87,1.67-1.94,.97-.15,1.88,.55,2.04,1.55,.16,1.01-.58,1.96-1.65,2.12-1.08,.08-2-.72-2.05-1.73Z"/><path class="a`" d="M703.21,163.71c.2-1,1.14-1.69,2.11-1.55,.97,.15,1.67,1.09,1.58,2.11-.1,1.01-1.04,1.71-2.11,1.55-1.07-.16-1.77-1.11-1.58-2.11Z"/><path class="a`" d="M692.61,160.24c.44-.92,1.51-1.31,2.4-.9,.92,.33,1.38,1.38,1.04,2.34-.35,.96-1.45,1.43-2.47,1.06-.98-.45-1.41-1.59-.97-2.5Z"/><path class="a`" d="M683.16,154.29c.65-.77,1.82-.94,2.61-.35,.79,.59,.95,1.75,.38,2.59-.58,.84-1.75,1-2.61,.35-.86-.65-1.04-1.8-.37-2.59Z"/><path class="a`" d="M675.55,146.12c.83-.59,1.98-.44,2.56,.35,.56,.81,.53,1.9-.25,2.58-.75,.66-2.02,.6-2.64-.29-.65-.86-.5-2.05,.33-2.64Z"/><path class="a`" d="M670.16,136.35c.97-.38,1.94,.1,2.4,.97,.43,.88,.03,1.97-.88,2.43-.91,.46-2.03,.05-2.5-.93-.5-.96,.04-2.11,.97-2.47Z"/><path class="a`" d="M667.39,125.54c1.01-.12,1.96,.57,2.1,1.54,.14,.97-.54,1.93-1.51,2.14-1.02,.22-1.97-.46-2.13-1.53-.16-1.07,.53-2.03,1.54-2.15Z"/><path class="a`" d="M667.39,114.38c1.03,.14,1.65,1.02,1.64,2.01-.05,.98-.92,1.75-1.93,1.71-1.02-.03-1.8-.94-1.75-2.02,.02-1.08,1.05-1.83,2.04-1.7Z"/><path class="a`" d="M670.16,103.57c.94,.38,1.44,1.44,1.1,2.36-.35,.92-1.39,1.44-2.35,1.16-1-.29-1.52-1.36-1.14-2.37,.37-1.02,1.44-1.53,2.38-1.15Z"/><path class="a`" d="M675.55,93.8c.83,.61,.98,1.72,.44,2.53-.51,.84-1.63,1.09-2.51,.57-.88-.52-1.13-1.69-.57-2.62,.6-.9,1.82-1.09,2.63-.49Z"/><path class="a`" d="M683.16,85.63c.64,.79,.58,1.97-.14,2.63-.73,.66-1.9,.61-2.62-.12-.72-.72-.65-1.9,.14-2.63,.8-.73,1.97-.67,2.62,.12Z"/><path class="a`" d="M692.61,79.68c.43,.93,.06,2.02-.82,2.45-.45,.2-.94,.24-1.38,.13-.44-.12-.85-.41-1.11-.85-.26-.44-.31-.95-.17-1.42,.13-.48,.45-.91,.94-1.13,.97-.47,2.11-.1,2.54,.83Z"/><path class="a`" d="M703.21,76.21c.09,.5-.02,.99-.28,1.36-.26,.39-.64,.72-1.12,.84-.95,.24-1.95-.35-2.23-1.33-.28-.98,.34-1.99,1.39-2.26,.52-.13,1.03-.06,1.44,.2,.41,.27,.7,.7,.8,1.2Z"/><path class="a`" d="M714.36,75.54c-.07,1.02-.92,1.8-1.9,1.75-.98-.09-1.8-.81-1.83-1.85-.03-1.01,.82-1.94,1.9-1.85,1.08,.05,1.9,.92,1.83,1.94Z"/><path class="a`" d="M725.33,77.59c-.16,.48-.49,.85-.9,1.06-.42,.24-.91,.33-1.39,.2-.95-.24-1.54-1.25-1.31-2.24,.22-.99,1.26-1.58,2.3-1.31,.52,.13,.93,.45,1.17,.86,.23,.44,.28,.95,.13,1.43Z"/><path class="a`" d="M735.42,82.37c-.55,.86-1.68,1.14-2.52,.63-.42-.25-.7-.68-.83-1.12-.14-.44-.11-.93,.13-1.39,.24-.45,.64-.77,1.11-.91,.47-.14,.98-.05,1.44,.23,.92,.56,1.22,1.71,.67,2.57Z"/><path class="a`" d="M744.01,89.49c-.76,.71-1.86,.63-2.58-.03-.73-.66-.77-1.81-.09-2.57,.68-.76,1.87-.79,2.67-.06,.79,.73,.73,1.99,0,2.67Z"/><path class="a`" d="M750.6,98.5c-.9,.49-2.04,.2-2.55-.64-.51-.84-.23-1.98,.61-2.55,.84-.57,1.99-.29,2.55,.64,.56,.92,.29,2.07-.61,2.55Z"/><path class="a`" d="M754.67,108.89c-.99,.25-1.99-.32-2.23-1.27-.27-.94,.19-1.95,1.16-2.3,.94-.34,2.08,.19,2.37,1.23,.27,1.05-.31,2.09-1.3,2.34Z"/><path class="a`" d="M756.12,119.96c-1.02,0-1.89-.81-1.94-1.79-.05-.98,.74-1.85,1.75-1.94s1.88,.71,1.94,1.79c.05,1.08-.73,1.95-1.75,1.94Z"/></g><path class="ai" d="M716.62,119.85c0,2.76-2.24,5-5,5s-5-2.24-5-5,2.24-5,5-5,5,2.24,5,5Z"/></g><g><line class="r" x1="722.72" y1="216.03" x2="722.72" y2="235.54"/><line class="r" x1="732.48" y1="225.79" x2="712.97" y2="225.79"/></g><g><line class="o" x1="400.8" y1="98.37" x2="390.84" y2="108.51"/><line class="o" x1="400.89" y1="108.42" x2="390.76" y2="98.46"/></g><g><line class="o" x1="460.3" y1="435.72" x2="450.34" y2="445.86"/><line class="o" x1="460.39" y1="445.77" x2="450.26" y2="435.81"/></g><g><line class="l" x1="487.94" y1="214.59" x2="477.98" y2="224.73"/><line class="l" x1="488.03" y1="224.64" x2="477.9" y2="214.68"/></g><g><line class="l" x1="379.78" y1="503.37" x2="369.82" y2="513.51"/><line class="l" x1="379.87" y1="513.42" x2="369.73" y2="503.46"/></g><g><line class="l" x1="156.56" y1="137.62" x2="146.6" y2="147.76"/><line class="l" x1="156.65" y1="147.67" x2="146.51" y2="137.71"/></g><g><circle class="e" cx="567.72" cy="407.39" r="51.97" transform="translate(73.34 901.2) rotate(-80.63)"/><g><line class="u" x1="567.72" y1="397.63" x2="567.72" y2="417.14"/><line class="u" x1="577.48" y1="407.39" x2="557.97" y2="407.39"/></g></g><g class="i"><rect class="j" x="388.16" y="310.9" width="98.31" height="98.31"/><line class="j" x1="404.54" y1="310.9" x2="404.54" y2="409.21"/><line class="j" x1="420.93" y1="310.9" x2="420.93" y2="409.21"/><line class="j" x1="437.31" y1="310.9" x2="437.31" y2="409.21"/><line class="j" x1="453.7" y1="310.9" x2="453.7" y2="409.21"/><line class="j" x1="470.08" y1="310.9" x2="470.08" y2="409.21"/><line class="j" x1="486.47" y1="392.82" x2="388.16" y2="392.82"/><line class="j" x1="486.47" y1="376.44" x2="388.16" y2="376.44"/><line class="j" x1="486.47" y1="360.05" x2="388.16" y2="360.05"/><line class="j" x1="486.47" y1="343.67" x2="388.16" y2="343.67"/><line class="j" x1="486.47" y1="327.28" x2="388.16" y2="327.28"/></g><g><rect class="a`" x="418.23" y="386.15" width="15.02" height="15.02" transform="translate(819.4 -32.08) rotate(90)"/><rect class="ai" x="403.22" y="401.17" width="15.02" height="15.02" transform="translate(819.4 -2.05) rotate(90)"/></g><path class="t" d="M.7,190.02c9.03-18.59,31.46-26.08,51.9-29.12,32.56-4.83,66.09-3.01,97.93,5.32,25.99,6.8,54.46,17.69,78.39,5.47,19.73-10.08,29.34-33.08,32.69-54.98,3.36-21.9,2.11-44.51,7.74-65.94,5.63-21.43,20.7-42.66,42.58-46.14"/><path class="t" d="M605.61,580.86c2.86-21.48,26.57-33.65,48.02-36.68,21.45-3.02,44.24-.83,63.86-10,19.6-9.16,32.55-28.03,44.26-46.21,11.71-18.19,23.96-37.33,42.97-47.65,19.01-10.32,46.91-7.78,57.36,11.16"/></g></g></g></svg>